<?xml version="1.0" encoding="UTF-8" standalone="no"?>
<svg
   width="100"
   zoomAndPan="magnify"
   viewBox="0 0 75 74.999997"
   height="100"
   preserveAspectRatio="xMidYMid meet"
   version="1.0"
   id="svg22"
   sodipodi:docname="bus.svg"
   inkscape:version="1.1.2 (0a00cf5339, 2022-02-04)"
   xmlns:inkscape="http://www.inkscape.org/namespaces/inkscape"
   xmlns:sodipodi="http://sodipodi.sourceforge.net/DTD/sodipodi-0.dtd"
   xmlns="http://www.w3.org/2000/svg"
   xmlns:svg="http://www.w3.org/2000/svg">
  <sodipodi:namedview
     id="namedview24"
     pagecolor="#ffffff"
     bordercolor="#666666"
     borderopacity="1.0"
     inkscape:pageshadow="2"
     inkscape:pageopacity="0.0"
     inkscape:pagecheckerboard="0"
     showgrid="false"
     inkscape:zoom="7.19"
     inkscape:cx="49.930459"
     inkscape:cy="50"
     inkscape:window-width="1850"
     inkscape:window-height="1016"
     inkscape:window-x="0"
     inkscape:window-y="0"
     inkscape:window-maximized="1"
     inkscape:current-layer="svg22" />
  <defs
     id="defs8">
    <clipPath
       id="f731799d23">
      <path
         d="M 18 30 L 57 30 L 57 68.382812 L 18 68.382812 Z M 18 30 "
         clip-rule="nonzero"
         id="path2" />
    </clipPath>
    <clipPath
       id="804cedad1d">
      <path
         d="M 18.390625 6.003906 L 55.890625 6.003906 L 55.890625 35.253906 L 18.390625 35.253906 Z M 18.390625 6.003906 "
         clip-rule="nonzero"
         id="path5" />
    </clipPath>
  </defs>
  <g
     clip-path="url(#f731799d23)"
     id="g12">
    <path
       fill="#ffe73e"
       d="M 37.230469 62.402344 C 31.976562 62.304688 27.128906 59.125 25.296875 54.113281 C 23.449219 49.023438 25.003906 43.199219 29.238281 39.761719 C 38.171875 32.496094 51.925781 40.605469 49.769531 51.972656 C 48.601562 58.023438 43.328125 62.289062 37.230469 62.402344 C 33.242188 62.464844 33.242188 68.675781 37.230469 68.59375 C 45.226562 68.449219 52.28125 63.550781 55.054688 56.027344 C 57.761719 48.648438 55.296875 39.972656 49.199219 35.058594 C 43.136719 30.144531 34.460938 29.382812 27.679688 33.355469 C 20.722656 37.425781 17.238281 45.503906 18.679688 53.351562 C 20.300781 62.222656 28.394531 68.449219 37.230469 68.59375 C 41.222656 68.675781 41.222656 62.464844 37.230469 62.402344 Z M 37.230469 62.402344 "
       fill-opacity="1"
       fill-rule="nonzero"
       id="path10" />
  </g>
  <g
     clip-path="url(#804cedad1d)"
     id="g16">
    <path
       fill="#ffffff"
       d="M 55.789062 34.296875 C 55.789062 34.441406 55.757812 34.574219 55.6875 34.703125 C 55.621094 34.828125 55.527344 34.929688 55.40625 35.007812 C 55.285156 35.085938 55.152344 35.132812 55.011719 35.144531 C 54.867188 35.15625 54.730469 35.132812 54.601562 35.074219 L 37.121094 27.480469 L 19.640625 35.074219 C 19.46875 35.148438 19.292969 35.164062 19.109375 35.121094 C 18.925781 35.078125 18.777344 34.984375 18.65625 34.839844 C 18.535156 34.695312 18.46875 34.53125 18.460938 34.34375 C 18.449219 34.15625 18.496094 33.984375 18.597656 33.828125 L 36.65625 6.734375 C 36.734375 6.617188 36.835938 6.523438 36.964844 6.457031 C 37.089844 6.390625 37.222656 6.355469 37.367188 6.359375 C 37.507812 6.359375 37.644531 6.394531 37.769531 6.460938 C 37.894531 6.53125 37.996094 6.625 38.070312 6.742188 L 55.65625 33.835938 C 55.746094 33.976562 55.789062 34.128906 55.789062 34.296875 Z M 55.789062 34.296875 "
       fill-opacity="1"
       fill-rule="nonzero"
       id="path14" />
  </g>
  <path
     fill="#ffe73e"
     d="M 19.300781 34.296875 L 37.359375 7.207031 L 54.941406 34.296875 L 37.121094 26.558594 Z M 19.300781 34.296875 "
     fill-opacity="1"
     fill-rule="nonzero"
     id="path18" />
  <path
     fill="#ffea92"
     d="M 38.390625 8.792969 L 37.359375 7.207031 L 19.300781 34.296875 L 22.238281 33.023438 Z M 38.390625 8.792969 "
     fill-opacity="1"
     fill-rule="nonzero"
     id="path20" />
  <path
     style="fill:#00ff00;stroke-width:0.139082"
     d="m 47.774687,83.009177 c -0.879043,-0.106763 -3.080202,-0.649376 -3.926581,-0.967952 -5.73922,-2.160236 -9.800223,-6.975094 -10.821235,-12.830011 -0.262298,-1.504129 -0.260437,-4.24469 0.0039,-5.760581 0.798281,-4.577683 3.445191,-8.72292 7.15407,-11.203749 2.897647,-1.938204 5.689453,-2.803212 9.047342,-2.803212 4.659162,0 9.115345,1.865523 12.450698,5.212325 4.014715,4.028496 5.674026,9.416901 4.562299,14.815491 -1.420067,6.895901 -7.08949,12.279324 -14.135092,13.422035 -1.158605,0.187912 -3.275495,0.244382 -4.335413,0.115654 z"
     id="path270"
     transform="scale(0.74999998)" />
  <path
     style="fill:#ff6600;stroke-width:0.139082"
     d="M 44.923505,90.873149 C 34.994097,88.803592 27.145058,81.232154 25.116163,71.766342 c -0.796362,-3.715427 -0.69799,-8.097673 0.264949,-11.802933 2.14687,-8.260864 8.26735,-14.872095 16.224375,-17.525269 8.884075,-2.962288 18.863257,-0.673269 25.616788,5.875963 5.627191,5.456963 8.451276,13.822858 7.306448,21.644172 -1.190446,8.132981 -6.656605,15.367712 -14.338064,18.977141 -1.715281,0.80599 -3.990719,1.555706 -5.906737,1.946167 -2.003057,0.408197 -7.384752,0.403347 -9.360417,-0.0084 z m 7.232267,-7.847779 c 5.492296,-0.890065 10.260869,-4.35465 12.720941,-9.242338 3.253665,-6.464403 2.153073,-13.802209 -2.845115,-18.96878 -5.373869,-5.55491 -13.537912,-7.100072 -20.098357,-3.803903 -2.411877,1.211801 -5.202817,3.747826 -6.585648,5.984136 -1.705895,2.758771 -2.502107,5.369101 -2.623575,8.601226 -0.122917,3.270666 0.338786,5.512105 1.70079,8.256862 0.873919,1.761152 1.605759,2.782263 3.024151,4.219497 3.884759,3.936358 9.438887,5.807006 14.706813,4.9533 z"
     id="path494"
     transform="scale(0.74999998)" />
  <path
     style="fill:#ff6600;stroke-width:0.139082"
     d="m 61.47427,40.535754 c -6.157858,-2.677452 -11.387196,-4.937251 -11.620751,-5.021775 -0.395895,-0.143275 -1.08116,0.131358 -10.121743,4.056481 -5.333405,2.315587 -9.718612,4.185668 -9.744905,4.155733 -0.02629,-0.02993 4.724466,-7.209436 10.557243,-15.954448 l 10.605049,-15.900022 0.277299,0.392372 c 0.494309,0.699435 21.452537,33.02234 21.452537,33.085254 0,0.03352 -0.04694,0.05949 -0.104312,0.05772 -0.05737,-0.0018 -5.142559,-2.193866 -11.300417,-4.871315 z"
     id="path570"
     transform="scale(0.74999998)" />
  <path
     style="fill:#ffcc00;stroke-width:0.139082"
     d="M 26.031116,45.42507 C 26.134634,45.144502 49.72851,9.8129155 49.814804,9.8092424 c 0.05113,-0.00218 0.23559,0.2307436 0.409904,0.5176006 0.174316,0.286857 0.351634,0.552851 0.394042,0.591099 0.04241,0.03825 0.165666,0.241379 0.273909,0.451405 0.194564,0.377513 0.0745,0.565335 -10.538314,16.485781 -11.357908,17.038171 -10.703444,16.13537 -12.157488,16.770652 -1.421563,0.621091 -2.206936,0.91094 -2.165741,0.79929 z"
     id="path609"
     transform="scale(0.74999998)" />
  <path
     style="fill:#ffcc00;stroke-width:0.139082"
     d="M 47.2879,82.86522 C 46.38001,82.710261 44.062049,82.043708 43.21182,81.693102 38.216751,79.6333 34.385767,75.072185 33.250794,69.833647 c -0.367504,-1.696238 -0.40247,-5.100914 -0.06913,-6.731026 1.377672,-6.737109 6.598433,-12.076992 13.0125,-13.309405 1.511258,-0.290377 4.393591,-0.290997 6.030538,-0.0013 6.591709,1.166572 12.14566,6.217912 13.787168,12.539484 0.481328,1.853635 0.596193,4.577768 0.271513,6.439237 -1.436398,8.235228 -8.570731,14.256776 -16.792019,14.172868 -1.020669,-0.01042 -2.012228,-0.04565 -2.203466,-0.07829 z"
     id="path796"
     transform="scale(0.74999998)" />
</svg>
